<?xml version="1.0" encoding="utf-8"?>
<!-- Generator: Adobe Illustrator 16.0.0, SVG Export Plug-In . SVG Version: 6.00 Build 0)  -->
<!DOCTYPE svg PUBLIC "-//W3C//DTD SVG 1.1//EN" "http://www.w3.org/Graphics/SVG/1.1/DTD/svg11.dtd">
<svg version="1.1" xmlns="http://www.w3.org/2000/svg" xmlns:xlink="http://www.w3.org/1999/xlink" x="0px" y="0px" width="432px"
	 height="432px" viewBox="0 0 432 432" enable-background="new 0 0 432 432" xml:space="preserve">
<g id="Layer_1" display="none">
</g>
<g id="Layer_10">
	<g>
		<path fill="#231F20" d="M215.96,391.256c-13.768-10.393-89.931-68.176-115.819-94.063c-3.8-3.8-7.743-7.668-11.556-11.407
			c-36.333-35.637-73.904-72.487-73.904-131.032c0-64.375,47.776-116.747,106.5-116.747c37.463,0,72.606,21.991,91.716,57.391
			c0.609,1.128,1.786,1.833,3.068,1.837c0.004,0,0.008,0,0.012,0c1.277,0,2.453-0.696,3.068-1.816
			c19.099-34.806,54.264-56.428,91.771-56.428c58.725,0,106.5,51.404,106.5,114.588c0,61.626-43.287,102.264-85.148,141.563
			l-4.233,3.977C300.606,324.817,229.174,380.917,215.96,391.256z M193.833,300.879c0,1.933,1.567,3.5,3.5,3.5H236
			c1.933,0,3.5-1.567,3.5-3.5v-58.605h58.605c1.933,0,3.5-1.567,3.5-3.5v-38.666c0-1.933-1.567-3.5-3.5-3.5H239.5v-58.606
			c0-1.933-1.567-3.5-3.5-3.5h-38.667c-1.933,0-3.5,1.567-3.5,3.5v58.606h-58.605c-1.933,0-3.5,1.567-3.5,3.5v38.666
			c0,1.933,1.567,3.5,3.5,3.5h58.605V300.879z"/>
		<path fill="#231F20" d="M121.182,41.506c18.149,0,35.991,5.264,51.598,15.223c15.237,9.723,28.044,23.669,37.039,40.33
			c1.218,2.256,3.572,3.666,6.136,3.675c0.008,0,0.016,0,0.024,0c2.555,0,4.907-1.392,6.137-3.633
			c8.98-16.367,21.783-30.07,37.022-39.629c15.626-9.802,33.497-14.982,51.681-14.982c56.794,0,103,49.834,103,111.088
			c0,27.2-8.187,51.542-25.762,76.605c-15.784,22.509-37.389,42.791-58.282,62.405l-4.236,3.979
			c-25.998,24.449-92.229,76.645-109.615,90.272c-18.124-13.715-88.696-67.514-113.306-92.123
			c-3.812-3.812-7.761-7.685-11.58-11.431c-35.817-35.131-72.854-71.458-72.854-128.533C18.182,92.308,64.387,41.506,121.182,41.506
			 M190.333,193.107h-55.105c-3.866,0-7,3.134-7,7v38.666c0,3.866,3.134,7,7,7h55.105v55.105c0,3.866,3.134,7,7,7H236
			c3.866,0,7-3.134,7-7v-55.105h55.105c3.866,0,7-3.134,7-7v-38.666c0-3.866-3.134-7-7-7H243v-55.106c0-3.866-3.134-7-7-7h-38.667
			c-3.866,0-7,3.134-7,7V193.107 M121.182,34.506c-60.751,0-110,53.836-110,120.247c0,66.41,47.152,105.581,86.485,144.914
			c28.868,28.867,118.333,96,118.333,96s83.849-65.333,114.333-94c44.257-41.618,90.484-82.871,90.484-148.089
			c0-65.219-49.248-118.088-110-118.088c-40.405,0-75.716,23.392-94.84,58.244C196.844,58.289,161.556,34.506,121.182,34.506
			L121.182,34.506z M135.228,238.773v-38.666h62.105v-62.106H236v62.106h62.105v38.666H236v62.105h-38.667v-62.105H135.228
			L135.228,238.773z"/>
	</g>
</g>
</svg>
